<?xml version="1.0" encoding="utf-8"?>
<svg viewBox="0 0 500 500" xmlns="http://www.w3.org/2000/svg" xmlns:bx="https://boxy-svg.com">
  <path d="M 184.777 194.78 L 205.456 206.719 L 205.456 230.597 L 184.777 242.536 L 164.098 230.597 L 164.098 206.719 Z" style="stroke: rgb(0, 0, 0); fill: rgb(186, 218, 85); transform-origin: 184.777px 218.658px;" transform="matrix(0, 1, -1, 0, 72.564361572266, 115.684906005859)" bx:shape="n-gon 184.777 218.658 23.878 23.878 6 0 1@0639ac8a"/>
  <g transform="matrix(1, 0, 0, 1, 94.0273208618164, 0.7923389077186656)">
    <rect x="153.909" y="319.606" width="18.598" height="30.579" style="fill: rgb(216, 216, 216); stroke: rgb(80, 80, 80); transform-box: fill-box; transform-origin: 50% 50%;" transform="matrix(0.5, 0.866025, -0.866025, 0.5, 0.00015, -0.000058)"/>
    <rect x="162.181" y="317.83" width="2.312" height="10.645" style="fill: rgb(216, 216, 216); stroke: rgb(0, 0, 0);"/>
    <ellipse style="fill: rgb(216, 216, 216); stroke: rgb(0, 0, 0);" cx="163.45" cy="333.159" rx="5.494" ry="5.494"/>
  </g>
  <path d="M 184.777 194.78 L 205.456 206.719 L 205.456 230.597 L 184.777 242.536 L 164.098 230.597 L 164.098 206.719 Z" style="stroke: rgb(0, 0, 0); fill: rgb(186, 218, 85); transform-origin: 184.777px 218.658px;" transform="matrix(0, 1, -1, 0, 107.926193237305, 94.576019287109)" bx:shape="n-gon 184.777 218.658 23.878 23.878 6 0 1@0639ac8a"/>
  <path d="M 184.777 194.78 L 205.456 206.719 L 205.456 230.597 L 184.777 242.536 L 164.098 230.597 L 164.098 206.719 Z" style="stroke: rgb(0, 0, 0); fill: rgb(218, 114, 85); transform-origin: 184.777px 218.658px;" transform="matrix(0, 1, -1, 0, 72.456970214844, 74.283020019531)" bx:shape="n-gon 184.777 218.658 23.878 23.878 6 0 1@0639ac8a"/>
  <path d="M 184.777 194.78 L 205.456 206.719 L 205.456 230.597 L 184.777 242.536 L 164.098 230.597 L 164.098 206.719 Z" style="stroke: rgb(0, 0, 0); fill: rgb(218, 114, 85); transform-origin: 184.777px 218.658px;" transform="matrix(0, 1, -1, 0, 108.320693969727, 53.447692871094)" bx:shape="n-gon 184.777 218.658 23.878 23.878 6 0 1@0639ac8a"/>
  <path d="M 184.777 194.78 L 205.456 206.719 L 205.456 230.597 L 184.777 242.536 L 164.098 230.597 L 164.098 206.719 Z" style="stroke: rgb(0, 0, 0); fill: rgb(218, 114, 85); transform-origin: 184.777px 218.658px;" transform="matrix(0, 1, -1, 0, 72.786117553711, 33.03042602539)" bx:shape="n-gon 184.777 218.658 23.878 23.878 6 0 1@0639ac8a"/>
  <path d="M 184.777 194.78 L 205.456 206.719 L 205.456 230.597 L 184.777 242.536 L 164.098 230.597 L 164.098 206.719 Z" style="stroke: rgb(0, 0, 0); fill: rgb(186, 218, 85); transform-origin: 184.777px 218.658px;" transform="matrix(0, 1, -1, 0, 36.666900634766, 94.590698242188)" bx:shape="n-gon 184.777 218.658 23.878 23.878 6 0 1@0639ac8a"/>
  <path d="M 184.777 194.78 L 205.456 206.719 L 205.456 230.597 L 184.777 242.536 L 164.098 230.597 L 164.098 206.719 Z" style="stroke: rgb(0, 0, 0); fill: rgb(218, 114, 85); transform-origin: 184.777px 218.658px;" transform="matrix(0, 1, -1, 0, 37.133987426758, 53.52791595459)" bx:shape="n-gon 184.777 218.658 23.878 23.878 6 0 1@0639ac8a"/>
  <path d="M 184.777 194.78 L 205.456 206.719 L 205.456 230.597 L 184.777 242.536 L 164.098 230.597 L 164.098 206.719 Z" style="stroke: rgb(0, 0, 0); fill: rgb(218, 114, 85); transform-origin: 184.777px 218.658px;" transform="matrix(0, 1, -1, 0, 179.838729858399, 11.744064331055)" bx:shape="n-gon 184.777 218.658 23.878 23.878 6 0 1@0639ac8a"/>
  <path d="M 184.777 194.78 L 205.456 206.719 L 205.456 230.597 L 184.777 242.536 L 164.098 230.597 L 164.098 206.719 Z" style="stroke: rgb(0, 0, 0); fill: rgb(218, 114, 85); transform-origin: 184.777px 218.658px;" transform="matrix(0, 1, -1, 0, 144.369491577149, -8.549722671509)" bx:shape="n-gon 184.777 218.658 23.878 23.878 6 0 1@0639ac8a"/>
  <path d="M 184.777 194.78 L 205.456 206.719 L 205.456 230.597 L 184.777 242.536 L 164.098 230.597 L 164.098 206.719 Z" style="stroke: rgb(0, 0, 0); fill: rgb(218, 114, 85); transform-origin: 184.777px 218.658px;" transform="matrix(0, 1, -1, 0, 180.233184814453, -29.38677406311)" bx:shape="n-gon 184.777 218.658 23.878 23.878 6 0 1@0639ac8a"/>
  <path d="M 184.777 194.78 L 205.456 206.719 L 205.456 230.597 L 184.777 242.536 L 164.098 230.597 L 164.098 206.719 Z" style="stroke: rgb(0, 0, 0); fill: rgb(218, 114, 85); transform-origin: 184.777px 218.658px;" transform="matrix(0, 1, -1, 0, 108.579437255859, 11.758056640625)" bx:shape="n-gon 184.777 218.658 23.878 23.878 6 0 1@0639ac8a"/>
  <path d="M 184.777 194.78 L 205.456 206.719 L 205.456 230.597 L 184.777 242.536 L 164.098 230.597 L 164.098 206.719 Z" style="stroke: rgb(0, 0, 0); fill: rgb(218, 114, 85); transform-origin: 184.777px 218.658px;" transform="matrix(0, 1, -1, 0, 109.046493530273, -29.306520462036)" bx:shape="n-gon 184.777 218.658 23.878 23.878 6 0 1@0639ac8a"/>
  <path d="M 184.777 194.78 L 205.456 206.719 L 205.456 230.597 L 184.777 242.536 L 164.098 230.597 L 164.098 206.719 Z" style="stroke: rgb(0, 0, 0); fill: rgb(218, 114, 85); transform-origin: 184.777px 218.658px;" transform="matrix(0, 1, -1, 0, 72.982391357422, -8.730068206787)" bx:shape="n-gon 184.777 218.658 23.878 23.878 6 0 1@0639ac8a"/>
  <path d="M 184.777 194.78 L 205.456 206.719 L 205.456 230.597 L 184.777 242.536 L 164.098 230.597 L 164.098 206.719 Z" style="stroke: rgb(0, 0, 0); fill: rgb(218, 114, 85); transform-origin: 184.777px 218.658px;" transform="matrix(0, 1, -1, 0, 37.513153076172, -29.023822784424)" bx:shape="n-gon 184.777 218.658 23.878 23.878 6 0 1@0639ac8a"/>
  <path d="M 184.777 194.78 L 205.456 206.719 L 205.456 230.597 L 184.777 242.536 L 164.098 230.597 L 164.098 206.719 Z" style="stroke: rgb(0, 0, 0); fill: rgb(218, 114, 85); transform-origin: 184.777px 218.658px;" transform="matrix(0, 1, -1, 0, 73.376861572266, -49.860004425049)" bx:shape="n-gon 184.777 218.658 23.878 23.878 6 0 1@0639ac8a"/>
  <path d="M 184.777 194.78 L 205.456 206.719 L 205.456 230.597 L 184.777 242.536 L 164.098 230.597 L 164.098 206.719 Z" style="stroke: rgb(0, 0, 0); fill: rgb(218, 114, 85); transform-origin: 184.777px 218.658px;" transform="matrix(0, 1, -1, 0, 1.723052978516, -8.716121673584)" bx:shape="n-gon 184.777 218.658 23.878 23.878 6 0 1@0639ac8a"/>
  <path d="M 184.777 194.78 L 205.456 206.719 L 205.456 230.597 L 184.777 242.536 L 164.098 230.597 L 164.098 206.719 Z" style="stroke: rgb(0, 0, 0); fill: rgb(218, 114, 85); transform-origin: 184.777px 218.658px;" transform="matrix(0, 1, -1, 0, 2.190139770508, -49.780666351318)" bx:shape="n-gon 184.777 218.658 23.878 23.878 6 0 1@0639ac8a"/>
  <path d="M 184.777 194.78 L 205.456 206.719 L 205.456 230.597 L 184.777 242.536 L 164.098 230.597 L 164.098 206.719 Z" style="stroke: rgb(0, 0, 0); fill: rgb(186, 218, 85); transform-origin: 184.777px 218.658px;" transform="matrix(0, 1, -1, 0, 1.082901000976, 74.549201965332)" bx:shape="n-gon 184.777 218.658 23.878 23.878 6 0 1@0639ac8a"/>
  <path d="M 184.777 194.78 L 205.456 206.719 L 205.456 230.597 L 184.777 242.536 L 164.098 230.597 L 164.098 206.719 Z" style="stroke: rgb(0, 0, 0); fill: rgb(186, 218, 85); transform-origin: 184.777px 218.658px;" transform="matrix(0, 1, -1, 0, -34.386337280273, 54.257308959961)" bx:shape="n-gon 184.777 218.658 23.878 23.878 6 0 1@0639ac8a"/>
  <path d="M 184.777 194.78 L 205.456 206.719 L 205.456 230.597 L 184.777 242.536 L 164.098 230.597 L 164.098 206.719 Z" style="stroke: rgb(0, 0, 0); fill: rgb(218, 114, 85); transform-origin: 184.777px 218.658px;" transform="matrix(0, 1, -1, 0, 1.47737121582, 33.421157836914)" bx:shape="n-gon 184.777 218.658 23.878 23.878 6 0 1@0639ac8a"/>
  <path d="M 184.777 194.78 L 205.456 206.719 L 205.456 230.597 L 184.777 242.536 L 164.098 230.597 L 164.098 206.719 Z" style="stroke: rgb(0, 0, 0); fill: rgb(186, 218, 85); transform-origin: 184.777px 218.658px;" transform="matrix(0, 1, -1, 0, -69.709335327148, 33.499778747559)" bx:shape="n-gon 184.777 218.658 23.878 23.878 6 0 1@0639ac8a"/>
  <path d="M 184.777 194.78 L 205.456 206.719 L 205.456 230.597 L 184.777 242.536 L 164.098 230.597 L 164.098 206.719 Z" style="stroke: rgb(0, 0, 0); fill: rgb(186, 218, 85); transform-origin: 184.777px 218.658px;" transform="matrix(0, 1, -1, 0, 179.392364501953, 53.482643127441)" bx:shape="n-gon 184.777 218.658 23.878 23.878 6 0 1@0639ac8a"/>
  <path d="M 184.777 194.78 L 205.456 206.719 L 205.456 230.597 L 184.777 242.536 L 164.098 230.597 L 164.098 206.719 Z" style="stroke: rgb(0, 0, 0); fill: rgb(186, 218, 85); transform-origin: 184.777px 218.658px;" transform="matrix(0, 1, -1, 0, 215.256057739258, 32.648300170898)" bx:shape="n-gon 184.777 218.658 23.878 23.878 6 0 1@0639ac8a"/>
  <path d="M 184.777 194.78 L 205.456 206.719 L 205.456 230.597 L 184.777 242.536 L 164.098 230.597 L 164.098 206.719 Z" style="stroke: rgb(0, 0, 0); fill: rgb(186, 218, 85); transform-origin: 184.777px 218.658px;" transform="matrix(0, 1, -1, 0, 143.602264404297, 73.791412353516)" bx:shape="n-gon 184.777 218.658 23.878 23.878 6 0 1@0639ac8a"/>
  <path d="M 184.777 194.78 L 205.456 206.719 L 205.456 230.597 L 184.777 242.536 L 164.098 230.597 L 164.098 206.719 Z" style="stroke: rgb(0, 0, 0); fill: rgb(218, 114, 85); transform-origin: 184.777px 218.658px;" transform="matrix(0, 1, -1, 0, 144.069366455078, 32.725898742676)" bx:shape="n-gon 184.777 218.658 23.878 23.878 6 0 1@0639ac8a"/>
  <path d="M 184.777 194.78 L 205.456 206.719 L 205.456 230.597 L 184.777 242.536 L 164.098 230.597 L 164.098 206.719 Z" style="stroke: rgb(0, 0, 0); fill: rgb(186, 218, 85); transform-origin: 184.777px 218.658px;" transform="matrix(0, 1, -1, 0, 287.323669433594, -8.413150787353)" bx:shape="n-gon 184.777 218.658 23.878 23.878 6 0 1@0639ac8a"/>
  <path d="M 184.777 194.78 L 205.456 206.719 L 205.456 230.597 L 184.777 242.536 L 164.098 230.597 L 164.098 206.719 Z" style="stroke: rgb(0, 0, 0); fill: rgb(186, 218, 85); transform-origin: 184.777px 218.658px;" transform="matrix(0, 1, -1, 0, 251.854400634766, -28.707685470581)" bx:shape="n-gon 184.777 218.658 23.878 23.878 6 0 1@0639ac8a"/>
  <path d="M 184.777 194.78 L 205.456 206.719 L 205.456 230.597 L 184.777 242.536 L 164.098 230.597 L 164.098 206.719 Z" style="stroke: rgb(0, 0, 0); fill: rgb(186, 218, 85); transform-origin: 184.777px 218.658px;" transform="matrix(0, 1, -1, 0, 287.718139648437, -49.543090820313)" bx:shape="n-gon 184.777 218.658 23.878 23.878 6 0 1@0639ac8a"/>
  <path d="M 184.777 194.78 L 205.456 206.719 L 205.456 230.597 L 184.777 242.536 L 164.098 230.597 L 164.098 206.719 Z" style="stroke: rgb(0, 0, 0); fill: rgb(218, 114, 85); transform-origin: 184.777px 218.658px;" transform="matrix(0, 1, -1, 0, 216.064315795899, -8.398746490478)" bx:shape="n-gon 184.777 218.658 23.878 23.878 6 0 1@0639ac8a"/>
  <path d="M 184.777 194.78 L 205.456 206.719 L 205.456 230.597 L 184.777 242.536 L 164.098 230.597 L 164.098 206.719 Z" style="stroke: rgb(0, 0, 0); fill: rgb(186, 218, 85); transform-origin: 184.777px 218.658px;" transform="matrix(0, 1, -1, 0, 216.531433105469, -49.462089538574)" bx:shape="n-gon 184.777 218.658 23.878 23.878 6 0 1@0639ac8a"/>
  <path d="M 184.777 194.78 L 205.456 206.719 L 205.456 230.597 L 184.777 242.536 L 164.098 230.597 L 164.098 206.719 Z" style="stroke: rgb(0, 0, 0); fill: rgb(186, 218, 85); transform-origin: 184.777px 218.658px;" transform="matrix(0, 1, -1, 0, 181.080062866211, -70.99471282959)" bx:shape="n-gon 184.777 218.658 23.878 23.878 6 0 1@0639ac8a"/>
  <path d="M 184.777 194.78 L 205.456 206.719 L 205.456 230.597 L 184.777 242.536 L 164.098 230.597 L 164.098 206.719 Z" style="stroke: rgb(0, 0, 0); fill: rgb(186, 218, 85); transform-origin: 184.777px 218.658px;" transform="matrix(0, 1, -1, 0, 145.610824584961, -91.288467407227)" bx:shape="n-gon 184.777 218.658 23.878 23.878 6 0 1@0639ac8a"/>
  <path d="M 184.777 194.78 L 205.456 206.719 L 205.456 230.597 L 184.777 242.536 L 164.098 230.597 L 164.098 206.719 Z" style="stroke: rgb(0, 0, 0); fill: rgb(186, 218, 85); transform-origin: 184.777px 218.658px;" transform="matrix(0, 1, -1, 0, 181.474533081055, -112.124649047852)" bx:shape="n-gon 184.777 218.658 23.878 23.878 6 0 1@0639ac8a"/>
  <path d="M 184.777 194.78 L 205.456 206.719 L 205.456 230.597 L 184.777 242.536 L 164.098 230.597 L 164.098 206.719 Z" style="stroke: rgb(0, 0, 0); fill: rgb(218, 114, 85); transform-origin: 184.777px 218.658px;" transform="matrix(0, 1, -1, 0, 109.820739746094, -70.980735778809)" bx:shape="n-gon 184.777 218.658 23.878 23.878 6 0 1@0639ac8a"/>
  <path d="M 184.777 194.78 L 205.456 206.719 L 205.456 230.597 L 184.777 242.536 L 164.098 230.597 L 164.098 206.719 Z" style="stroke: rgb(0, 0, 0); fill: rgb(218, 114, 85); transform-origin: 184.777px 218.658px;" transform="matrix(0, 1, -1, 0, 73.343597412109, -91.548049926758)" bx:shape="n-gon 184.777 218.658 23.878 23.878 6 0 1@0639ac8a"/>
  <path d="M 184.777 194.78 L 205.456 206.719 L 205.456 230.597 L 184.777 242.536 L 164.098 230.597 L 164.098 206.719 Z" style="stroke: rgb(0, 0, 0); fill: rgb(186, 218, 85); transform-origin: 184.777px 218.658px;" transform="matrix(0, 1, -1, 0, 37.874359130859, -111.841812133789)" bx:shape="n-gon 184.777 218.658 23.878 23.878 6 0 1@0639ac8a"/>
  <path d="M 184.777 194.78 L 205.456 206.719 L 205.456 230.597 L 184.777 242.536 L 164.098 230.597 L 164.098 206.719 Z" style="stroke: rgb(0, 0, 0); fill: rgb(186, 218, 85); transform-origin: 184.777px 218.658px;" transform="matrix(0, 1, -1, 0, 73.738067626953, -132.677993774414)" bx:shape="n-gon 184.777 218.658 23.878 23.878 6 0 1@0639ac8a"/>
  <path d="M 184.777 194.78 L 205.456 206.719 L 205.456 230.597 L 184.777 242.536 L 164.098 230.597 L 164.098 206.719 Z" style="stroke: rgb(0, 0, 0); fill: rgb(186, 218, 85); transform-origin: 184.777px 218.658px;" transform="matrix(0, 1, -1, 0, 2.084243774414, -91.533172607422)" bx:shape="n-gon 184.777 218.658 23.878 23.878 6 0 1@0639ac8a"/>
  <path d="M 184.777 194.78 L 205.456 206.719 L 205.456 230.597 L 184.777 242.536 L 164.098 230.597 L 164.098 206.719 Z" style="stroke: rgb(0, 0, 0); fill: rgb(186, 218, 85); transform-origin: 184.777px 218.658px;" transform="matrix(0, 1, -1, 0, 2.551345825195, -132.596908569336)" bx:shape="n-gon 184.777 218.658 23.878 23.878 6 0 1@0639ac8a"/>
  <path d="M 184.777 194.78 L 205.456 206.719 L 205.456 230.597 L 184.777 242.536 L 164.098 230.597 L 164.098 206.719 Z" style="stroke: rgb(0, 0, 0); fill: rgb(218, 114, 85); transform-origin: 184.777px 218.658px;" transform="matrix(0, 1, -1, 0, -34.448959350586, 12.540504455567)" bx:shape="n-gon 184.777 218.658 23.878 23.878 6 0 1@0639ac8a"/>
  <path d="M 184.777 194.78 L 205.456 206.719 L 205.456 230.597 L 184.777 242.536 L 164.098 230.597 L 164.098 206.719 Z" style="stroke: rgb(0, 0, 0); fill: rgb(218, 114, 85); transform-origin: 184.777px 218.658px;" transform="matrix(0, 1, -1, 0, -69.918182373047, -7.753044128418)" bx:shape="n-gon 184.777 218.658 23.878 23.878 6 0 1@0639ac8a"/>
  <path d="M 184.777 194.78 L 205.456 206.719 L 205.456 230.597 L 184.777 242.536 L 164.098 230.597 L 164.098 206.719 Z" style="stroke: rgb(0, 0, 0); fill: rgb(218, 114, 85); transform-origin: 184.777px 218.658px;" transform="matrix(0, 1, -1, 0, -34.054443359375, -28.589248657227)" bx:shape="n-gon 184.777 218.658 23.878 23.878 6 0 1@0639ac8a"/>
  <path d="M 184.777 194.78 L 205.456 206.719 L 205.456 230.597 L 184.777 242.536 L 164.098 230.597 L 164.098 206.719 Z" style="stroke: rgb(0, 0, 0); fill: rgb(186, 218, 85); transform-origin: 184.777px 218.658px;" transform="matrix(0, 1, -1, 0, -105.708267211914, 12.554634094238)" bx:shape="n-gon 184.777 218.658 23.878 23.878 6 0 1@0639ac8a"/>
  <path d="M 184.777 194.78 L 205.456 206.719 L 205.456 230.597 L 184.777 242.536 L 164.098 230.597 L 164.098 206.719 Z" style="stroke: rgb(0, 0, 0); fill: rgb(186, 218, 85); transform-origin: 184.777px 218.658px;" transform="matrix(0, 1, -1, 0, -105.241149902344, -28.509117126465)" bx:shape="n-gon 184.777 218.658 23.878 23.878 6 0 1@0639ac8a"/>
  <path d="M 184.777 194.78 L 205.456 206.719 L 205.456 230.597 L 184.777 242.536 L 164.098 230.597 L 164.098 206.719 Z" style="stroke: rgb(0, 0, 0); fill: rgb(186, 218, 85); transform-origin: 184.777px 218.658px;" transform="matrix(0, 1, -1, 0, -34.204940795898, -70.26383972168)" bx:shape="n-gon 184.777 218.658 23.878 23.878 6 0 1@0639ac8a"/>
  <path d="M 184.777 194.78 L 205.456 206.719 L 205.456 230.597 L 184.777 242.536 L 164.098 230.597 L 164.098 206.719 Z" style="stroke: rgb(0, 0, 0); fill: rgb(186, 218, 85); transform-origin: 184.777px 218.658px;" transform="matrix(0, 1, -1, 0, -69.674179077149, -90.557914733887)" bx:shape="n-gon 184.777 218.658 23.878 23.878 6 0 1@0639ac8a"/>
  <path d="M 184.777 194.78 L 205.456 206.719 L 205.456 230.597 L 184.777 242.536 L 164.098 230.597 L 164.098 206.719 Z" style="stroke: rgb(0, 0, 0); fill: rgb(186, 218, 85); transform-origin: 184.777px 218.658px;" transform="matrix(0, 1, -1, 0, -33.810470581055, -111.395576477051)" bx:shape="n-gon 184.777 218.658 23.878 23.878 6 0 1@0639ac8a"/>
  <path d="M 184.777 194.78 L 205.456 206.719 L 205.456 230.597 L 184.777 242.536 L 164.098 230.597 L 164.098 206.719 Z" style="stroke: rgb(0, 0, 0); fill: rgb(186, 218, 85); transform-origin: 184.777px 218.658px;" transform="matrix(0, 1, -1, 0, -105.464279174805, -70.250747680664)" bx:shape="n-gon 184.777 218.658 23.878 23.878 6 0 1@0639ac8a"/>
  <path d="M 184.777 194.78 L 205.456 206.719 L 205.456 230.597 L 184.777 242.536 L 164.098 230.597 L 164.098 206.719 Z" style="stroke: rgb(0, 0, 0); fill: rgb(186, 218, 85); transform-origin: 184.777px 218.658px;" transform="matrix(0, 1, -1, 0, 38.206573486328, -153.26708984375)" bx:shape="n-gon 184.777 218.658 23.878 23.878 6 0 1@0639ac8a"/>
  <path d="M 184.777 194.78 L 205.456 206.719 L 205.456 230.597 L 184.777 242.536 L 164.098 230.597 L 164.098 206.719 Z" style="stroke: rgb(0, 0, 0); fill: rgb(186, 218, 85); transform-origin: 184.777px 218.658px;" transform="matrix(0, 1, -1, 0, 145.556182861328, -133.17399597168)" bx:shape="n-gon 184.777 218.658 23.878 23.878 6 0 1@0639ac8a"/>
  <path d="M 184.777 194.78 L 205.456 206.719 L 205.456 230.597 L 184.777 242.536 L 164.098 230.597 L 164.098 206.719 Z" style="stroke: rgb(0, 0, 0); fill: rgb(186, 218, 85); transform-origin: 184.777px 218.658px;" transform="matrix(0, 1, -1, 0, 110.028015136719, -154.41584777832)" bx:shape="n-gon 184.777 218.658 23.878 23.878 6 0 1@0639ac8a"/>
  <path d="M 184.777 194.78 L 205.456 206.719 L 205.456 230.597 L 184.777 242.536 L 164.098 230.597 L 164.098 206.719 Z" style="stroke: rgb(0, 0, 0); fill: rgb(186, 218, 85); transform-origin: 184.777px 218.658px;" transform="matrix(0, 1, -1, 0, 252.164947509766, -70.543487548828)" bx:shape="n-gon 184.777 218.658 23.878 23.878 6 0 1@0639ac8a"/>
  <path d="M 184.777 194.78 L 205.456 206.719 L 205.456 230.597 L 184.777 242.536 L 164.098 230.597 L 164.098 206.719 Z" style="stroke: rgb(0, 0, 0); fill: rgb(186, 218, 85); transform-origin: 184.777px 218.658px;" transform="matrix(0, 1, -1, 0, -69.507247924805, -49.396728515625)" bx:shape="n-gon 184.777 218.658 23.878 23.878 6 0 1@0639ac8a"/>
  <path d="M 184.777 194.78 L 205.456 206.719 L 205.456 230.597 L 184.777 242.536 L 164.098 230.597 L 164.098 206.719 Z" style="stroke: rgb(0, 0, 0); fill: rgb(218, 114, 85); transform-origin: 184.777px 218.658px;" transform="matrix(0, 1, -1, 0, 37.958541870117, -69.872467041016)" bx:shape="n-gon 184.777 218.658 23.878 23.878 6 0 1@0639ac8a"/>
  <path d="M 184.777 194.78 L 205.456 206.719 L 205.456 230.597 L 184.777 242.536 L 164.098 230.597 L 164.098 206.719 Z" style="stroke: rgb(0, 0, 0); fill: rgb(218, 114, 85); transform-origin: 184.777px 218.658px;" transform="matrix(0, 1, -1, 0, 37.049331665039, 12.481285095215)" bx:shape="n-gon 184.777 218.658 23.878 23.878 6 0 1@0639ac8a"/>
  <path d="M 184.777 194.78 L 205.456 206.719 L 205.456 230.597 L 184.777 242.536 L 164.098 230.597 L 164.098 206.719 Z" style="stroke: rgb(0, 0, 0); fill: rgb(186, 218, 85); transform-origin: 184.777px 218.658px;" transform="matrix(0, 1, -1, 0, 109.505111694336, -112.44287109375)" bx:shape="n-gon 184.777 218.658 23.878 23.878 6 0 1@0639ac8a"/>
  <path d="M 184.777 194.78 L 205.456 206.719 L 205.456 230.597 L 184.777 242.536 L 164.098 230.597 L 164.098 206.719 Z" style="stroke: rgb(0, 0, 0); fill: rgb(218, 114, 85); transform-origin: 184.777px 218.658px;" transform="matrix(0, 1, -1, 0, 144.895080566406, -49.949069976807)" bx:shape="n-gon 184.777 218.658 23.878 23.878 6 0 1@0639ac8a"/>
  <path d="M 184.777 194.78 L 205.456 206.719 L 205.456 230.597 L 184.777 242.536 L 164.098 230.597 L 164.098 206.719 Z" style="stroke: rgb(0, 0, 0); fill: rgb(186, 218, 85); transform-origin: 184.777px 218.658px;" transform="matrix(0, 1, -1, 0, 216.663848876953, -91.004447937012)" bx:shape="n-gon 184.777 218.658 23.878 23.878 6 0 1@0639ac8a"/>
  <path d="M 184.777 194.78 L 205.456 206.719 L 205.456 230.597 L 184.777 242.536 L 164.098 230.597 L 164.098 206.719 Z" style="stroke: rgb(0, 0, 0); fill: rgb(186, 218, 85); transform-origin: 184.777px 218.658px;" transform="matrix(0, 1, -1, 0, 73.461441040039, -174.554809570312)" bx:shape="n-gon 184.777 218.658 23.878 23.878 6 0 1@0639ac8a"/>
  <path d="M 184.777 194.78 L 205.456 206.719 L 205.456 230.597 L 184.777 242.536 L 164.098 230.597 L 164.098 206.719 Z" style="stroke: rgb(0, 0, 0); fill: rgb(186, 218, 85); transform-origin: 184.777px 218.658px;" transform="matrix(0, 1, -1, 0, 251.936630249023, 12.683601379395)" bx:shape="n-gon 184.777 218.658 23.878 23.878 6 0 1@0639ac8a"/>
  <path d="M 184.777 194.78 L 205.456 206.719 L 205.456 230.597 L 184.777 242.536 L 164.098 230.597 L 164.098 206.719 Z" style="stroke: rgb(0, 0, 0); fill: rgb(186, 218, 85); transform-origin: 184.777px 218.658px;" transform="matrix(0, 1, -1, 0, -141.451156616211, -8.559062957763)" bx:shape="n-gon 184.777 218.658 23.878 23.878 6 0 1@0639ac8a"/>
  <path d="M 184.777 194.78 L 205.456 206.719 L 205.456 230.597 L 184.777 242.536 L 164.098 230.597 L 164.098 206.719 Z" style="stroke: rgb(0, 0, 0); fill: rgb(186, 218, 85); transform-origin: 184.777px 218.658px;" transform="matrix(0, 1, -1, 0, -141.056671142578, -49.688972473145)" bx:shape="n-gon 184.777 218.658 23.878 23.878 6 0 1@0639ac8a"/>
</svg>